<svg width="1024" height="1024" viewBox="0 0 1024 1024" fill="none" xmlns="http://www.w3.org/2000/svg">
  <defs>
    <linearGradient id="bg" x1="170" y1="140" x2="860" y2="900" gradientUnits="userSpaceOnUse">
      <stop stop-color="#083955"/>
      <stop offset="0.55" stop-color="#0369A1"/>
      <stop offset="1" stop-color="#0EA5E9"/>
    </linearGradient>
  </defs>

  <rect x="64" y="64" width="896" height="896" rx="226" fill="url(#bg)"/>

  <circle cx="310" cy="230" r="170" fill="#FFFFFF" fill-opacity="0.08"/>
  <circle cx="776" cy="794" r="154" fill="#FFFFFF" fill-opacity="0.06"/>

  <circle cx="512" cy="464" r="252" fill="#FFFFFF" fill-opacity="0.06"/>
  <circle cx="512" cy="464" r="222" stroke="#8ED7FA" stroke-opacity="0.58" stroke-width="28"/>
  <circle cx="512" cy="464" r="162" stroke="#D7EAF5" stroke-opacity="0.22" stroke-width="4"/>

  <circle cx="512" cy="402" r="42" fill="#FFFFFF"/>
  <rect x="438" y="458" width="148" height="112" rx="56" fill="#FFFFFF"/>
  <rect x="414" y="606" width="196" height="18" rx="9" fill="#FFFFFF" fill-opacity="0.18"/>

  <circle cx="736" cy="712" r="88" fill="#0C4A6E" fill-opacity="0.34"/>
  <circle cx="736" cy="712" r="88" stroke="#8ED7FA" stroke-opacity="0.26" stroke-width="2"/>
  <path d="M736 660L684 680V730C684 774 714.333 814.167 736 824C757.667 814.167 788 774 788 730V680L736 660Z" fill="#22C55E"/>
  <path d="M712 729L729 746L764 709" stroke="#FFFFFF" stroke-width="18" stroke-linecap="round" stroke-linejoin="round"/>
</svg>
